<svg width="16" height="14" viewBox="0 0 16 14" fill="none" xmlns="http://www.w3.org/2000/svg">
<path d="M13.4 0C14.786 0 15.92 1.187 15.996 2.682L16 2.844V11.156C16 12.673 14.915 13.912 13.547 13.996L13.4 14H2.6C1.214 14 0.0799999 12.813 0.00399995 11.318L0 11.156V2.844C0 1.327 1.085 0.0879999 2.452 0.00399995L2.6 0H13.4ZM4.851 4.002C3.177 4.002 2 5.32 2 7.002C2 8.641 3.256 10 4.851 10C6.056 10 6.919 9.202 6.995 8.367L7 8.247V7.001L6.991 6.911C6.96782 6.80795 6.91393 6.71436 6.83644 6.64259C6.75896 6.57081 6.66152 6.52423 6.557 6.509L6.459 6.501L5.541 6.5L5.443 6.508C5.32294 6.52448 5.2126 6.58292 5.13151 6.67297C5.05042 6.76303 5.00384 6.87888 5 7C5 7.245 5.191 7.45 5.443 7.492L5.541 7.5L5.919 7.501V8.247L5.912 8.327C5.852 8.649 5.448 9 4.852 9C3.894 9 3.082 8.12 3.082 7.001C3.082 5.835 3.825 5.002 4.852 5.002C5.314 5.002 5.678 5.069 5.946 5.194C6.07286 5.25447 6.21776 5.26521 6.35215 5.22412C6.48654 5.18302 6.60066 5.09307 6.672 4.972C6.806 4.725 6.699 4.425 6.432 4.301C5.999 4.099 5.472 4.002 4.852 4.002H4.851ZM9 4C8.88297 3.99996 8.76964 4.04097 8.67974 4.11589C8.58984 4.19081 8.52906 4.29489 8.508 4.41L8.5 4.5V9.5L8.508 9.59C8.52887 9.70528 8.58957 9.80957 8.67949 9.88468C8.76941 9.95978 8.88284 10.0009 9 10.0009C9.11716 10.0009 9.23059 9.95978 9.32051 9.88468C9.41043 9.80957 9.47113 9.70528 9.492 9.59L9.5 9.5V4.5L9.492 4.41C9.47094 4.29489 9.41016 4.19081 9.32026 4.11589C9.23036 4.04097 9.11703 3.99996 9 4ZM13.5 4H11.5C11.383 3.99996 11.2696 4.04097 11.1797 4.11589C11.0898 4.19081 11.0291 4.29489 11.008 4.41L11 4.5V9.5L11.008 9.59C11.0289 9.70528 11.0896 9.80957 11.1795 9.88468C11.2694 9.95978 11.3828 10.0009 11.5 10.0009C11.6172 10.0009 11.7306 9.95978 11.8205 9.88468C11.9104 9.80957 11.9711 9.70528 11.992 9.59L12 9.5V8H13.5L13.59 7.992C13.7053 7.97113 13.8096 7.91043 13.8847 7.82051C13.9598 7.73059 14.0009 7.61716 14.0009 7.5C14.0009 7.38284 13.9598 7.26941 13.8847 7.17949C13.8096 7.08957 13.7053 7.02887 13.59 7.008L13.5 7H12V5H13.5L13.59 4.992C13.7053 4.97113 13.8096 4.91043 13.8847 4.82051C13.9598 4.73059 14.0009 4.61716 14.0009 4.5C14.0009 4.38284 13.9598 4.26941 13.8847 4.17949C13.8096 4.08957 13.7053 4.02887 13.59 4.008L13.5 4Z" fill="black"/>
</svg>
